+ filenameToUse=/home/horvathandras/vatic/vatic/public/videouploads/DJI_0083_30m_regi_disznoturas_homokmegy_20180603_napos_kalaszos_T4.avi
+ filenameNoDot=DJI_0083_30m_regi_disznoturas_homokmegy_20180603_napos_kalaszos_T4
+ FullUploadPath=/home/horvathandras/vatic/vatic/public/videouploads/DJI_0083_30m_regi_disznoturas_homokmegy_20180603_napos_kalaszos_T4.avi
+ VideoDataDir=/home/horvathandras/vatic/vatic/videos
+ AvailableObjectTypes='PozitívROI NegatívROI Túrás ~Friss ~1-2Hetes ~Régebbi ~Egyéb1 ~Egyéb2 ~Egyéb3 Rágás ~Friss ~1-2Hetes ~Régebbi ~Egyéb1 ~Egyéb2 ~Egyéb3 Törés ~Friss ~1-2Hetes ~Régebbi ~Egyéb1 ~Egyéb2 ~Egyéb3 Taposás ~Friss ~1-2Hetes ~Régebbi ~Egyéb1 ~Egyéb2 ~Egyéb3 EgészségesNövény Egyéb1 Egyéb2 Egyéb3 Egyéb4 Egyéb5 Bizonytalan Művelőút Gktaposás Vetőhiba Széldöntés Jégkár Belvíz Aszály Erózió EgyszikűGyom KétszikűGyom EgyébNövvédelmiPR'
++ dirname /home/horvathandras/vatic/vatic/vatic_publisher.sh
+ cd /home/horvathandras/vatic/vatic
+ touch /home/horvathandras/vatic/vatic/public/videouploads/DJI_0083_30m_regi_disznoturas_homokmegy_20180603_napos_kalaszos_T4.avi
+ chmod 744 /home/horvathandras/vatic/vatic/public/videouploads/DJI_0083_30m_regi_disznoturas_homokmegy_20180603_napos_kalaszos_T4.avi
+ mkdir /home/horvathandras/vatic/vatic/videos/DJI_0083_30m_regi_disznoturas_homokmegy_20180603_napos_kalaszos_T4
+ turkic extract /home/horvathandras/vatic/vatic/public/videouploads/DJI_0083_30m_regi_disznoturas_homokmegy_20180603_napos_kalaszos_T4.avi /home/horvathandras/vatic/vatic/videos/DJI_0083_30m_regi_disznoturas_homokmegy_20180603_napos_kalaszos_T4 --no-resize
ffmpeg version 2.8.14-0ubuntu0.16.04.1 Copyright (c) 2000-2018 the FFmpeg developers
  built with gcc 5.4.0 (Ubuntu 5.4.0-6ubuntu1~16.04.9) 20160609
  configuration: --prefix=/usr --extra-version=0ubuntu0.16.04.1 --build-suffix=-ffmpeg --toolchain=hardened --libdir=/usr/lib/x86_64-linux-gnu --incdir=/usr/include/x86_64-linux-gnu --cc=cc --cxx=g++ --enable-gpl --enable-shared --disable-stripping --disable-decoder=libopenjpeg --disable-decoder=libschroedinger --enable-avresample --enable-avisynth --enable-gnutls --enable-ladspa --enable-libass --enable-libbluray --enable-libbs2b --enable-libcaca --enable-libcdio --enable-libflite --enable-libfontconfig --enable-libfreetype --enable-libfribidi --enable-libgme --enable-libgsm --enable-libmodplug --enable-libmp3lame --enable-libopenjpeg --enable-libopus --enable-libpulse --enable-librtmp --enable-libschroedinger --enable-libshine --enable-libsnappy --enable-libsoxr --enable-libspeex --enable-libssh --enable-libtheora --enable-libtwolame --enable-libvorbis --enable-libvpx --enable-libwavpack --enable-libwebp --enable-libx265 --enable-libxvid --enable-libzvbi --enable-openal --enable-opengl --enable-x11grab --enable-libdc1394 --enable-libiec61883 --enable-libzmq --enable-frei0r --enable-libx264 --enable-libopencv
  libavutil      54. 31.100 / 54. 31.100
  libavcodec     56. 60.100 / 56. 60.100
  libavformat    56. 40.101 / 56. 40.101
  libavdevice    56.  4.100 / 56.  4.100
  libavfilter     5. 40.101 /  5. 40.101
  libavresample   2.  1.  0 /  2.  1.  0
  libswscale      3.  1.101 /  3.  1.101
  libswresample   1.  2.101 /  1.  2.101
  libpostproc    53.  3.100 / 53.  3.100
Input #0, mov,mp4,m4a,3gp,3g2,mj2, from '/home/horvathandras/vatic/vatic/public/videouploads/DJI_0083_30m_regi_disznoturas_homokmegy_20180603_napos_kalaszos_T4.avi':
  Metadata:
    major_brand     : qt  
    minor_version   : 537986816
    compatible_brands: qt  
    creation_time   : 2018-06-03 09:11:48
    location        : +46.515701+19.171382+30.200
    location-{    : +46.515701+19.171382+30.200
    comment         : DE=None, Mode=P, DSW=0001
  Duration: 00:00:26.20, start: 0.000000, bitrate: 100806 kb/s
    Stream #0:0(eng): Video: h264 (High) (avc1 / 0x31637661), yuv420p(tv, bt709), 4096x2160 [SAR 1:1 DAR 256:135], 100648 kb/s, 50 fps, 50 tbr, 50k tbn, 100 tbc (default)
    Metadata:
      creation_time   : 2018-06-03 09:11:48
      handler_name    : DJI.AVC
      encoder         : AVC encoder
    Stream #0:1(eng): Data: none (priv / 0x76697270), 149 kb/s
    Metadata:
      creation_time   : 2018-06-03 09:11:48
      handler_name    : DJI.Meta
Please use -b:a or -b:v, -b is ambiguous
[swscaler @ 0x1deff40] deprecated pixel format used, make sure you did set range correctly
Output #0, image2, to '/tmp/pyvision-ffmpeg-299260461/%d.jpg':
  Metadata:
    major_brand     : qt  
    minor_version   : 537986816
    compatible_brands: qt  
    comment         : DE=None, Mode=P, DSW=0001
    location        : +46.515701+19.171382+30.200
    location-{    : +46.515701+19.171382+30.200
    encoder         : Lavf56.40.101
    Stream #0:0(eng): Video: mjpeg, yuvj420p(pc), 4096x2160 [SAR 1:1 DAR 256:135], q=2-31, 10000 kb/s, 50 fps, 50 tbn, 50 tbc (default)
    Metadata:
      creation_time   : 2018-06-03 09:11:48
      handler_name    : DJI.AVC
      encoder         : Lavc56.60.100 mjpeg
Stream mapping:
  Stream #0:0 -> #0:0 (h264 (native) -> mjpeg (native))
Press [q] to stop, [?] for help
frame=    1 fps=0.4 q=18.6 size=N/A time=00:00:00.02 bitrate=N/A    frame=    2 fps=0.7 q=20.6 size=N/A time=00:00:00.04 bitrate=N/A    frame=    4 fps=1.1 q=24.8 size=N/A time=00:00:00.08 bitrate=N/A    frame=    6 fps=1.3 q=24.8 size=N/A time=00:00:00.12 bitrate=N/A    frame=    8 fps=1.5 q=24.8 size=N/A time=00:00:00.16 bitrate=N/A    frame=   10 fps=1.6 q=24.8 size=N/A time=00:00:00.20 bitrate=N/A    frame=   11 fps=1.6 q=24.8 size=N/A time=00:00:00.22 bitrate=N/A    frame=   13 fps=1.7 q=24.8 size=N/A time=00:00:00.26 bitrate=N/A    frame=   15 fps=1.8 q=24.8 size=N/A time=00:00:00.30 bitrate=N/A    frame=   17 fps=1.9 q=24.8 size=N/A time=00:00:00.34 bitrate=N/A    frame=   19 fps=1.9 q=24.8 size=N/A time=00:00:00.38 bitrate=N/A    frame=   21 fps=1.9 q=24.8 size=N/A time=00:00:00.42 bitrate=N/A    frame=   23 fps=2.0 q=24.8 size=N/A time=00:00:00.46 bitrate=N/A    frame=   25 fps=2.0 q=24.8 size=N/A time=00:00:00.50 bitrate=N/A    frame=   26 fps=2.0 q=24.8 size=N/A time=00:00:00.52 bitrate=N/A    frame=   28 fps=2.0 q=24.8 size=N/A time=00:00:00.56 bitrate=N/A    frame=   30 fps=2.0 q=24.8 size=N/A time=00:00:00.60 bitrate=N/A    frame=   32 fps=2.0 q=24.8 size=N/A time=00:00:00.64 bitrate=N/A    frame=   33 fps=2.0 q=24.8 size=N/A time=00:00:00.66 bitrate=N/A    frame=   35 fps=2.0 q=24.8 size=N/A time=00:00:00.70 bitrate=N/A    frame=   37 fps=2.0 q=24.8 size=N/A time=00:00:00.74 bitrate=N/A    frame=   39 fps=2.1 q=24.8 size=N/A time=00:00:00.78 bitrate=N/A    frame=   41 fps=2.1 q=24.8 size=N/A time=00:00:00.82 bitrate=N/A    frame=   43 fps=2.1 q=24.8 size=N/A time=00:00:00.86 bitrate=N/A    frame=   45 fps=2.1 q=24.8 size=N/A time=00:00:00.90 bitrate=N/A    frame=   47 fps=2.1 q=24.8 size=N/A time=00:00:00.94 bitrate=N/A    frame=   49 fps=2.2 q=24.8 size=N/A time=00:00:00.98 bitrate=N/A    frame=   51 fps=2.2 q=24.8 size=N/A time=00:00:01.02 bitrate=N/A    frame=   53 fps=2.2 q=24.8 size=N/A time=00:00:01.06 bitrate=N/A    frame=   55 fps=2.2 q=24.8 size=N/A time=00:00:01.10 bitrate=N/A    frame=   57 fps=2.2 q=24.8 size=N/A time=00:00:01.14 bitrate=N/A    frame=   59 fps=2.2 q=24.8 size=N/A time=00:00:01.18 bitrate=N/A    frame=   61 fps=2.2 q=24.8 size=N/A time=00:00:01.22 bitrate=N/A    frame=   63 fps=2.2 q=24.8 size=N/A time=00:00:01.26 bitrate=N/A    frame=   65 fps=2.3 q=24.8 size=N/A time=00:00:01.30 bitrate=N/A    frame=   67 fps=2.3 q=24.8 size=N/A time=00:00:01.34 bitrate=N/A    frame=   69 fps=2.3 q=24.8 size=N/A time=00:00:01.38 bitrate=N/A    frame=   71 fps=2.3 q=24.8 size=N/A time=00:00:01.42 bitrate=N/A    frame=   73 fps=2.3 q=24.8 size=N/A time=00:00:01.46 bitrate=N/A    frame=   75 fps=2.3 q=24.8 size=N/A time=00:00:01.50 bitrate=N/A    frame=   77 fps=2.3 q=24.8 size=N/A time=00:00:01.54 bitrate=N/A    frame=   79 fps=2.3 q=24.8 size=N/A time=00:00:01.58 bitrate=N/A    frame=   81 fps=2.4 q=24.8 size=N/A time=00:00:01.62 bitrate=N/A    frame=   83 fps=2.4 q=24.8 size=N/A time=00:00:01.66 bitrate=N/A    frame=   85 fps=2.4 q=24.8 size=N/A time=00:00:01.70 bitrate=N/A    frame=   87 fps=2.4 q=24.8 size=N/A time=00:00:01.74 bitrate=N/A    frame=   89 fps=2.4 q=24.8 size=N/A time=00:00:01.78 bitrate=N/A    frame=   91 fps=2.4 q=24.8 size=N/A time=00:00:01.82 bitrate=N/A    frame=   93 fps=2.4 q=24.8 size=N/A time=00:00:01.86 bitrate=N/A    frame=   95 fps=2.4 q=24.8 size=N/A time=00:00:01.90 bitrate=N/A    frame=   97 fps=2.4 q=24.8 size=N/A time=00:00:01.94 bitrate=N/A    frame=   99 fps=2.4 q=24.8 size=N/A time=00:00:01.98 bitrate=N/A    frame=  101 fps=2.4 q=24.8 size=N/A time=00:00:02.02 bitrate=N/A    frame=  103 fps=2.4 q=24.8 size=N/A time=00:00:02.06 bitrate=N/A    frame=  105 fps=2.4 q=24.8 size=N/A time=00:00:02.10 bitrate=N/A    frame=  107 fps=2.4 q=24.8 size=N/A time=00:00:02.14 bitrate=N/A    frame=  109 fps=2.4 q=24.8 size=N/A time=00:00:02.18 bitrate=N/A    frame=  111 fps=2.4 q=24.8 size=N/A time=00:00:02.22 bitrate=N/A    frame=  113 fps=2.4 q=24.8 size=N/A time=00:00:02.26 bitrate=N/A    frame=  115 fps=2.4 q=24.8 size=N/A time=00:00:02.30 bitrate=N/A    frame=  117 fps=2.4 q=24.8 size=N/A time=00:00:02.34 bitrate=N/A    frame=  119 fps=2.4 q=24.8 size=N/A time=00:00:02.38 bitrate=N/A    frame=  121 fps=2.5 q=24.8 size=N/A time=00:00:02.42 bitrate=N/A    frame=  123 fps=2.5 q=24.8 size=N/A time=00:00:02.46 bitrate=N/A    frame=  125 fps=2.5 q=24.8 size=N/A time=00:00:02.50 bitrate=N/A    frame=  127 fps=2.5 q=24.8 size=N/A time=00:00:02.54 bitrate=N/A    frame=  129 fps=2.5 q=24.8 size=N/A time=00:00:02.58 bitrate=N/A    frame=  131 fps=2.5 q=24.8 size=N/A time=00:00:02.62 bitrate=N/A    frame=  133 fps=2.5 q=24.8 size=N/A time=00:00:02.66 bitrate=N/A    frame=  135 fps=2.5 q=24.8 size=N/A time=00:00:02.70 bitrate=N/A    frame=  137 fps=2.5 q=24.8 size=N/A time=00:00:02.74 bitrate=N/A    frame=  139 fps=2.5 q=24.8 size=N/A time=00:00:02.78 bitrate=N/A    frame=  141 fps=2.5 q=24.8 size=N/A time=00:00:02.82 bitrate=N/A    frame=  143 fps=2.5 q=24.8 size=N/A time=00:00:02.86 bitrate=N/A    frame=  145 fps=2.5 q=24.8 size=N/A time=00:00:02.90 bitrate=N/A    frame=  147 fps=2.5 q=24.8 size=N/A time=00:00:02.94 bitrate=N/A    frame=  149 fps=2.5 q=24.8 size=N/A time=00:00:02.98 bitrate=N/A    frame=  151 fps=2.5 q=24.8 size=N/A time=00:00:03.02 bitrate=N/A    frame=  153 fps=2.5 q=24.8 size=N/A time=00:00:03.06 bitrate=N/A    frame=  155 fps=2.5 q=24.8 size=N/A time=00:00:03.10 bitrate=N/A    frame=  157 fps=2.5 q=24.8 size=N/A time=00:00:03.14 bitrate=N/A    frame=  159 fps=2.5 q=24.8 size=N/A time=00:00:03.18 bitrate=N/A    frame=  161 fps=2.5 q=24.8 size=N/A time=00:00:03.22 bitrate=N/A    frame=  163 fps=2.5 q=24.8 size=N/A time=00:00:03.26 bitrate=N/A    frame=  165 fps=2.5 q=24.8 size=N/A time=00:00:03.30 bitrate=N/A    frame=  167 fps=2.5 q=24.8 size=N/A time=00:00:03.34 bitrate=N/A    frame=  169 fps=2.5 q=24.8 size=N/A time=00:00:03.38 bitrate=N/A    frame=  171 fps=2.5 q=24.8 size=N/A time=00:00:03.42 bitrate=N/A    frame=  173 fps=2.5 q=24.8 size=N/A time=00:00:03.46 bitrate=N/A    frame=  175 fps=2.5 q=24.8 size=N/A time=00:00:03.50 bitrate=N/A    frame=  177 fps=2.5 q=24.8 size=N/A time=00:00:03.54 bitrate=N/A    frame=  179 fps=2.5 q=24.8 size=N/A time=00:00:03.58 bitrate=N/A    frame=  181 fps=2.5 q=24.8 size=N/A time=00:00:03.62 bitrate=N/A    frame=  183 fps=2.5 q=24.8 size=N/A time=00:00:03.66 bitrate=N/A    frame=  185 fps=2.5 q=24.8 size=N/A time=00:00:03.70 bitrate=N/A    frame=  187 fps=2.5 q=24.8 size=N/A time=00:00:03.74 bitrate=N/A    frame=  189 fps=2.6 q=24.8 size=N/A time=00:00:03.78 bitrate=N/A    frame=  191 fps=2.6 q=24.8 size=N/A time=00:00:03.82 bitrate=N/A    frame=  193 fps=2.6 q=24.8 size=N/A time=00:00:03.86 bitrate=N/A    frame=  195 fps=2.6 q=24.8 size=N/A time=00:00:03.90 bitrate=N/A    frame=  197 fps=2.6 q=24.8 size=N/A time=00:00:03.94 bitrate=N/A    frame=  199 fps=2.6 q=24.8 size=N/A time=00:00:03.98 bitrate=N/A    frame=  201 fps=2.6 q=24.8 size=N/A time=00:00:04.02 bitrate=N/A    frame=  203 fps=2.6 q=24.8 size=N/A time=00:00:04.06 bitrate=N/A    frame=  205 fps=2.6 q=24.8 size=N/A time=00:00:04.10 bitrate=N/A    frame=  207 fps=2.6 q=24.8 size=N/A time=00:00:04.14 bitrate=N/A    frame=  209 fps=2.6 q=24.8 size=N/A time=00:00:04.18 bitrate=N/A    frame=  211 fps=2.6 q=24.8 size=N/A time=00:00:04.22 bitrate=N/A    frame=  213 fps=2.6 q=24.8 size=N/A time=00:00:04.26 bitrate=N/A    frame=  215 fps=2.6 q=24.8 size=N/A time=00:00:04.30 bitrate=N/A    frame=  217 fps=2.6 q=24.8 size=N/A time=00:00:04.34 bitrate=N/A    frame=  219 fps=2.6 q=24.8 size=N/A time=00:00:04.38 bitrate=N/A    frame=  221 fps=2.6 q=24.8 size=N/A time=00:00:04.42 bitrate=N/A    frame=  223 fps=2.6 q=24.8 size=N/A time=00:00:04.46 bitrate=N/A    frame=  225 fps=2.6 q=24.8 size=N/A time=00:00:04.50 bitrate=N/A    frame=  227 fps=2.6 q=24.8 size=N/A time=00:00:04.54 bitrate=N/A    frame=  229 fps=2.6 q=24.8 size=N/A time=00:00:04.58 bitrate=N/A    frame=  231 fps=2.6 q=24.8 size=N/A time=00:00:04.62 bitrate=N/A    frame=  233 fps=2.6 q=24.8 size=N/A time=00:00:04.66 bitrate=N/A    frame=  235 fps=2.6 q=24.8 size=N/A time=00:00:04.70 bitrate=N/A    frame=  237 fps=2.6 q=24.8 size=N/A time=00:00:04.74 bitrate=N/A    frame=  239 fps=2.6 q=24.8 size=N/A time=00:00:04.78 bitrate=N/A    frame=  241 fps=2.6 q=24.8 size=N/A time=00:00:04.82 bitrate=N/A    frame=  243 fps=2.6 q=24.8 size=N/A time=00:00:04.86 bitrate=N/A    frame=  245 fps=2.6 q=24.8 size=N/A time=00:00:04.90 bitrate=N/A    frame=  247 fps=2.6 q=24.8 size=N/A time=00:00:04.94 bitrate=N/A    frame=  249 fps=2.6 q=24.8 size=N/A time=00:00:04.98 bitrate=N/A    frame=  251 fps=2.6 q=24.8 size=N/A time=00:00:05.02 bitrate=N/A    frame=  253 fps=2.6 q=24.8 size=N/A time=00:00:05.06 bitrate=N/A    frame=  255 fps=2.6 q=24.8 size=N/A time=00:00:05.10 bitrate=N/A    frame=  257 fps=2.6 q=24.8 size=N/A time=00:00:05.14 bitrate=N/A    frame=  259 fps=2.6 q=24.8 size=N/A time=00:00:05.18 bitrate=N/A    frame=  261 fps=2.6 q=24.8 size=N/A time=00:00:05.22 bitrate=N/A    frame=  263 fps=2.6 q=24.8 size=N/A time=00:00:05.26 bitrate=N/A    frame=  265 fps=2.6 q=24.8 size=N/A time=00:00:05.30 bitrate=N/A    frame=  267 fps=2.6 q=24.8 size=N/A time=00:00:05.34 bitrate=N/A    frame=  269 fps=2.6 q=24.8 size=N/A time=00:00:05.38 bitrate=N/A    frame=  271 fps=2.6 q=24.8 size=N/A time=00:00:05.42 bitrate=N/A    frame=  273 fps=2.6 q=24.8 size=N/A time=00:00:05.46 bitrate=N/A    frame=  275 fps=2.6 q=24.8 size=N/A time=00:00:05.50 bitrate=N/A    frame=  277 fps=2.6 q=24.8 size=N/A time=00:00:05.54 bitrate=N/A    frame=  279 fps=2.6 q=24.8 size=N/A time=00:00:05.58 bitrate=N/A    frame=  281 fps=2.6 q=24.8 size=N/A time=00:00:05.62 bitrate=N/A    frame=  283 fps=2.6 q=24.8 size=N/A time=00:00:05.66 bitrate=N/A    frame=  285 fps=2.6 q=24.8 size=N/A time=00:00:05.70 bitrate=N/A    frame=  287 fps=2.6 q=24.8 size=N/A time=00:00:05.74 bitrate=N/A    frame=  289 fps=2.6 q=24.8 size=N/A time=00:00:05.78 bitrate=N/A    frame=  291 fps=2.6 q=24.8 size=N/A time=00:00:05.82 bitrate=N/A    frame=  293 fps=2.6 q=24.8 size=N/A time=00:00:05.86 bitrate=N/A    frame=  295 fps=2.6 q=24.8 size=N/A time=00:00:05.90 bitrate=N/A    frame=  297 fps=2.6 q=24.8 size=N/A time=00:00:05.94 bitrate=N/A    frame=  299 fps=2.6 q=24.8 size=N/A time=00:00:05.98 bitrate=N/A    frame=  301 fps=2.6 q=24.8 size=N/A time=00:00:06.02 bitrate=N/A    frame=  303 fps=2.6 q=24.8 size=N/A time=00:00:06.06 bitrate=N/A    frame=  305 fps=2.6 q=24.8 size=N/A time=00:00:06.10 bitrate=N/A    frame=  307 fps=2.6 q=24.8 size=N/A time=00:00:06.14 bitrate=N/A    frame=  309 fps=2.6 q=24.8 size=N/A time=00:00:06.18 bitrate=N/A    frame=  311 fps=2.6 q=24.8 size=N/A time=00:00:06.22 bitrate=N/A    frame=  313 fps=2.6 q=24.8 size=N/A time=00:00:06.26 bitrate=N/A    frame=  315 fps=2.6 q=24.8 size=N/A time=00:00:06.30 bitrate=N/A    frame=  317 fps=2.6 q=24.8 size=N/A time=00:00:06.34 bitrate=N/A    frame=  319 fps=2.6 q=24.8 size=N/A time=00:00:06.38 bitrate=N/A    frame=  321 fps=2.6 q=24.8 size=N/A time=00:00:06.42 bitrate=N/A    frame=  323 fps=2.6 q=24.8 size=N/A time=00:00:06.46 bitrate=N/A    frame=  325 fps=2.6 q=24.8 size=N/A time=00:00:06.50 bitrate=N/A    frame=  327 fps=2.6 q=24.8 size=N/A time=00:00:06.54 bitrate=N/A    frame=  329 fps=2.6 q=24.8 size=N/A time=00:00:06.58 bitrate=N/A    frame=  331 fps=2.6 q=24.8 size=N/A time=00:00:06.62 bitrate=N/A    frame=  333 fps=2.6 q=24.8 size=N/A time=00:00:06.66 bitrate=N/A    frame=  335 fps=2.6 q=24.8 size=N/A time=00:00:06.70 bitrate=N/A    frame=  337 fps=2.6 q=24.8 size=N/A time=00:00:06.74 bitrate=N/A    frame=  339 fps=2.6 q=24.8 size=N/A time=00:00:06.78 bitrate=N/A    frame=  341 fps=2.6 q=24.8 size=N/A time=00:00:06.82 bitrate=N/A    frame=  343 fps=2.6 q=24.8 size=N/A time=00:00:06.86 bitrate=N/A    frame=  345 fps=2.6 q=24.8 size=N/A time=00:00:06.90 bitrate=N/A    frame=  347 fps=2.6 q=24.8 size=N/A time=00:00:06.94 bitrate=N/A    frame=  349 fps=2.6 q=24.8 size=N/A time=00:00:06.98 bitrate=N/A    frame=  351 fps=2.6 q=24.8 size=N/A time=00:00:07.02 bitrate=N/A    frame=  353 fps=2.6 q=24.8 size=N/A time=00:00:07.06 bitrate=N/A    frame=  355 fps=2.6 q=24.8 size=N/A time=00:00:07.10 bitrate=N/A    frame=  357 fps=2.6 q=24.8 size=N/A time=00:00:07.14 bitrate=N/A    frame=  359 fps=2.6 q=24.8 size=N/A time=00:00:07.18 bitrate=N/A    frame=  361 fps=2.6 q=24.8 size=N/A time=00:00:07.22 bitrate=N/A    frame=  363 fps=2.6 q=24.8 size=N/A time=00:00:07.26 bitrate=N/A    frame=  365 fps=2.6 q=24.8 size=N/A time=00:00:07.30 bitrate=N/A    frame=  367 fps=2.6 q=24.8 size=N/A time=00:00:07.34 bitrate=N/A    frame=  369 fps=2.6 q=24.8 size=N/A time=00:00:07.38 bitrate=N/A    frame=  371 fps=2.6 q=24.8 size=N/A time=00:00:07.42 bitrate=N/A    frame=  373 fps=2.6 q=24.8 size=N/A time=00:00:07.46 bitrate=N/A    frame=  375 fps=2.6 q=24.8 size=N/A time=00:00:07.50 bitrate=N/A    frame=  377 fps=2.6 q=24.8 size=N/A time=00:00:07.54 bitrate=N/A    frame=  379 fps=2.6 q=24.8 size=N/A time=00:00:07.58 bitrate=N/A    frame=  381 fps=2.6 q=24.8 size=N/A time=00:00:07.62 bitrate=N/A    frame=  383 fps=2.6 q=24.8 size=N/A time=00:00:07.66 bitrate=N/A    frame=  385 fps=2.6 q=24.8 size=N/A time=00:00:07.70 bitrate=N/A    frame=  387 fps=2.6 q=24.8 size=N/A time=00:00:07.74 bitrate=N/A    frame=  389 fps=2.6 q=24.8 size=N/A time=00:00:07.78 bitrate=N/A    frame=  391 fps=2.6 q=24.8 size=N/A time=00:00:07.82 bitrate=N/A    frame=  393 fps=2.6 q=24.8 size=N/A time=00:00:07.86 bitrate=N/A    frame=  395 fps=2.6 q=24.8 size=N/A time=00:00:07.90 bitrate=N/A    frame=  397 fps=2.6 q=24.8 size=N/A time=00:00:07.94 bitrate=N/A    frame=  399 fps=2.6 q=24.8 size=N/A time=00:00:07.98 bitrate=N/A    frame=  401 fps=2.6 q=24.8 size=N/A time=00:00:08.02 bitrate=N/A    frame=  403 fps=2.6 q=24.8 size=N/A time=00:00:08.06 bitrate=N/A    frame=  405 fps=2.6 q=24.8 size=N/A time=00:00:08.10 bitrate=N/A    frame=  407 fps=2.6 q=24.8 size=N/A time=00:00:08.14 bitrate=N/A    frame=  409 fps=2.6 q=24.8 size=N/A time=00:00:08.18 bitrate=N/A    frame=  411 fps=2.6 q=24.8 size=N/A time=00:00:08.22 bitrate=N/A    frame=  413 fps=2.6 q=24.8 size=N/A time=00:00:08.26 bitrate=N/A    frame=  415 fps=2.6 q=24.8 size=N/A time=00:00:08.30 bitrate=N/A    frame=  417 fps=2.6 q=24.8 size=N/A time=00:00:08.34 bitrate=N/A    frame=  419 fps=2.6 q=24.8 size=N/A time=00:00:08.38 bitrate=N/A    frame=  421 fps=2.6 q=24.8 size=N/A time=00:00:08.42 bitrate=N/A    frame=  423 fps=2.6 q=24.8 size=N/A time=00:00:08.46 bitrate=N/A    frame=  425 fps=2.6 q=24.8 size=N/A time=00:00:08.50 bitrate=N/A    frame=  427 fps=2.6 q=24.8 size=N/A time=00:00:08.54 bitrate=N/A    frame=  429 fps=2.6 q=24.8 size=N/A time=00:00:08.58 bitrate=N/A    frame=  431 fps=2.6 q=24.8 size=N/A time=00:00:08.62 bitrate=N/A    frame=  433 fps=2.6 q=24.8 size=N/A time=00:00:08.66 bitrate=N/A    frame=  435 fps=2.6 q=24.8 size=N/A time=00:00:08.70 bitrate=N/A    frame=  437 fps=2.6 q=24.8 size=N/A time=00:00:08.74 bitrate=N/A    frame=  439 fps=2.6 q=24.8 size=N/A time=00:00:08.78 bitrate=N/A    frame=  441 fps=2.6 q=24.8 size=N/A time=00:00:08.82 bitrate=N/A    frame=  443 fps=2.6 q=24.8 size=N/A time=00:00:08.86 bitrate=N/A    frame=  445 fps=2.6 q=24.8 size=N/A time=00:00:08.90 bitrate=N/A    frame=  447 fps=2.6 q=24.8 size=N/A time=00:00:08.94 bitrate=N/A    frame=  449 fps=2.6 q=24.8 size=N/A time=00:00:08.98 bitrate=N/A    frame=  451 fps=2.6 q=24.8 size=N/A time=00:00:09.02 bitrate=N/A    frame=  453 fps=2.6 q=24.8 size=N/A time=00:00:09.06 bitrate=N/A    frame=  455 fps=2.6 q=24.8 size=N/A time=00:00:09.10 bitrate=N/A    frame=  457 fps=2.6 q=24.8 size=N/A time=00:00:09.14 bitrate=N/A    frame=  459 fps=2.6 q=24.8 size=N/A time=00:00:09.18 bitrate=N/A    frame=  461 fps=2.6 q=24.8 size=N/A time=00:00:09.22 bitrate=N/A    frame=  463 fps=2.6 q=24.8 size=N/A time=00:00:09.26 bitrate=N/A    frame=  465 fps=2.6 q=24.8 size=N/A time=00:00:09.30 bitrate=N/A    frame=  467 fps=2.6 q=24.8 size=N/A time=00:00:09.34 bitrate=N/A    frame=  469 fps=2.6 q=24.8 size=N/A time=00:00:09.38 bitrate=N/A    frame=  471 fps=2.6 q=24.8 size=N/A time=00:00:09.42 bitrate=N/A    frame=  473 fps=2.6 q=24.8 size=N/A time=00:00:09.46 bitrate=N/A    frame=  475 fps=2.6 q=24.8 size=N/A time=00:00:09.50 bitrate=N/A    frame=  477 fps=2.6 q=24.8 size=N/A time=00:00:09.54 bitrate=N/A    frame=  479 fps=2.6 q=24.8 size=N/A time=00:00:09.58 bitrate=N/A    frame=  481 fps=2.6 q=24.8 size=N/A time=00:00:09.62 bitrate=N/A    frame=  483 fps=2.6 q=24.8 size=N/A time=00:00:09.66 bitrate=N/A    frame=  485 fps=2.6 q=24.8 size=N/A time=00:00:09.70 bitrate=N/A    frame=  487 fps=2.6 q=24.8 size=N/A time=00:00:09.74 bitrate=N/A    frame=  489 fps=2.6 q=24.8 size=N/A time=00:00:09.78 bitrate=N/A    frame=  491 fps=2.6 q=24.8 size=N/A time=00:00:09.82 bitrate=N/A    frame=  493 fps=2.6 q=24.8 size=N/A time=00:00:09.86 bitrate=N/A    frame=  495 fps=2.6 q=24.8 size=N/A time=00:00:09.90 bitrate=N/A    frame=  497 fps=2.6 q=24.8 size=N/A time=00:00:09.94 bitrate=N/A    frame=  499 fps=2.6 q=24.8 size=N/A time=00:00:09.98 bitrate=N/A    frame=  501 fps=2.6 q=24.8 size=N/A time=00:00:10.02 bitrate=N/A    frame=  503 fps=2.6 q=24.8 size=N/A time=00:00:10.06 bitrate=N/A    frame=  505 fps=2.6 q=24.8 size=N/A time=00:00:10.10 bitrate=N/A    frame=  507 fps=2.6 q=24.8 size=N/A time=00:00:10.14 bitrate=N/A    frame=  509 fps=2.6 q=24.8 size=N/A time=00:00:10.18 bitrate=N/A    frame=  511 fps=2.6 q=24.8 size=N/A time=00:00:10.22 bitrate=N/A    frame=  513 fps=2.6 q=24.8 size=N/A time=00:00:10.26 bitrate=N/A    frame=  515 fps=2.6 q=24.8 size=N/A time=00:00:10.30 bitrate=N/A    frame=  517 fps=2.6 q=24.8 size=N/A time=00:00:10.34 bitrate=N/A    frame=  519 fps=2.6 q=24.8 size=N/A time=00:00:10.38 bitrate=N/A    frame=  521 fps=2.6 q=24.8 size=N/A time=00:00:10.42 bitrate=N/A    frame=  523 fps=2.6 q=24.8 size=N/A time=00:00:10.46 bitrate=N/A    frame=  525 fps=2.6 q=24.8 size=N/A time=00:00:10.50 bitrate=N/A    frame=  527 fps=2.6 q=24.8 size=N/A time=00:00:10.54 bitrate=N/A    frame=  529 fps=2.6 q=24.8 size=N/A time=00:00:10.58 bitrate=N/A    frame=  531 fps=2.6 q=24.8 size=N/A time=00:00:10.62 bitrate=N/A    frame=  533 fps=2.6 q=24.8 size=N/A time=00:00:10.66 bitrate=N/A    frame=  535 fps=2.6 q=24.8 size=N/A time=00:00:10.70 bitrate=N/A    frame=  537 fps=2.6 q=24.8 size=N/A time=00:00:10.74 bitrate=N/A    frame=  539 fps=2.6 q=24.8 size=N/A time=00:00:10.78 bitrate=N/A    frame=  541 fps=2.6 q=24.8 size=N/A time=00:00:10.82 bitrate=N/A    frame=  543 fps=2.6 q=24.8 size=N/A time=00:00:10.86 bitrate=N/A    frame=  545 fps=2.6 q=24.8 size=N/A time=00:00:10.90 bitrate=N/A    frame=  547 fps=2.6 q=24.8 size=N/A time=00:00:10.94 bitrate=N/A    frame=  549 fps=2.6 q=24.8 size=N/A time=00:00:10.98 bitrate=N/A    frame=  551 fps=2.6 q=24.8 size=N/A time=00:00:11.02 bitrate=N/A    frame=  553 fps=2.6 q=24.8 size=N/A time=00:00:11.06 bitrate=N/A    frame=  555 fps=2.6 q=24.8 size=N/A time=00:00:11.10 bitrate=N/A    frame=  557 fps=2.6 q=24.8 size=N/A time=00:00:11.14 bitrate=N/A    frame=  559 fps=2.6 q=24.8 size=N/A time=00:00:11.18 bitrate=N/A    frame=  561 fps=2.6 q=24.8 size=N/A time=00:00:11.22 bitrate=N/A    frame=  563 fps=2.6 q=24.8 size=N/A time=00:00:11.26 bitrate=N/A    frame=  565 fps=2.6 q=24.8 size=N/A time=00:00:11.30 bitrate=N/A    frame=  567 fps=2.6 q=24.8 size=N/A time=00:00:11.34 bitrate=N/A    frame=  569 fps=2.6 q=24.8 size=N/A time=00:00:11.38 bitrate=N/A    frame=  571 fps=2.6 q=24.8 size=N/A time=00:00:11.42 bitrate=N/A    frame=  573 fps=2.6 q=24.8 size=N/A time=00:00:11.46 bitrate=N/A    frame=  575 fps=2.6 q=24.8 size=N/A time=00:00:11.50 bitrate=N/A    frame=  577 fps=2.6 q=24.8 size=N/A time=00:00:11.54 bitrate=N/A    frame=  579 fps=2.6 q=24.8 size=N/A time=00:00:11.58 bitrate=N/A    frame=  581 fps=2.6 q=24.8 size=N/A time=00:00:11.62 bitrate=N/A    frame=  583 fps=2.6 q=24.8 size=N/A time=00:00:11.66 bitrate=N/A    frame=  585 fps=2.6 q=24.8 size=N/A time=00:00:11.70 bitrate=N/A    frame=  587 fps=2.6 q=24.8 size=N/A time=00:00:11.74 bitrate=N/A    frame=  589 fps=2.6 q=24.8 size=N/A time=00:00:11.78 bitrate=N/A    frame=  591 fps=2.6 q=24.8 size=N/A time=00:00:11.82 bitrate=N/A    frame=  593 fps=2.6 q=24.8 size=N/A time=00:00:11.86 bitrate=N/A    frame=  595 fps=2.6 q=24.8 size=N/A time=00:00:11.90 bitrate=N/A    frame=  597 fps=2.6 q=24.8 size=N/A time=00:00:11.94 bitrate=N/A    frame=  599 fps=2.6 q=24.8 size=N/A time=00:00:11.98 bitrate=N/A    frame=  601 fps=2.6 q=24.8 size=N/A time=00:00:12.02 bitrate=N/A    frame=  603 fps=2.6 q=24.8 size=N/A time=00:00:12.06 bitrate=N/A    frame=  605 fps=2.6 q=24.8 size=N/A time=00:00:12.10 bitrate=N/A    frame=  607 fps=2.6 q=24.8 size=N/A time=00:00:12.14 bitrate=N/A    frame=  609 fps=2.6 q=24.8 size=N/A time=00:00:12.18 bitrate=N/A    frame=  611 fps=2.6 q=24.8 size=N/A time=00:00:12.22 bitrate=N/A    frame=  613 fps=2.6 q=24.8 size=N/A time=00:00:12.26 bitrate=N/A    frame=  615 fps=2.6 q=24.8 size=N/A time=00:00:12.30 bitrate=N/A    frame=  617 fps=2.6 q=24.8 size=N/A time=00:00:12.34 bitrate=N/A    frame=  619 fps=2.6 q=24.8 size=N/A time=00:00:12.38 bitrate=N/A    frame=  621 fps=2.6 q=24.8 size=N/A time=00:00:12.42 bitrate=N/A    frame=  623 fps=2.6 q=24.8 size=N/A time=00:00:12.46 bitrate=N/A    frame=  625 fps=2.6 q=24.8 size=N/A time=00:00:12.50 bitrate=N/A    frame=  627 fps=2.6 q=24.8 size=N/A time=00:00:12.54 bitrate=N/A    frame=  629 fps=2.6 q=24.8 size=N/A time=00:00:12.58 bitrate=N/A    frame=  631 fps=2.6 q=24.8 size=N/A time=00:00:12.62 bitrate=N/A    frame=  633 fps=2.6 q=24.8 size=N/A time=00:00:12.66 bitrate=N/A    frame=  635 fps=2.6 q=24.8 size=N/A time=00:00:12.70 bitrate=N/A    frame=  637 fps=2.6 q=24.8 size=N/A time=00:00:12.74 bitrate=N/A    frame=  639 fps=2.6 q=24.8 size=N/A time=00:00:12.78 bitrate=N/A    frame=  641 fps=2.6 q=24.8 size=N/A time=00:00:12.82 bitrate=N/A    frame=  643 fps=2.6 q=24.8 size=N/A time=00:00:12.86 bitrate=N/A    frame=  645 fps=2.6 q=24.8 size=N/A time=00:00:12.90 bitrate=N/A    frame=  647 fps=2.6 q=24.8 size=N/A time=00:00:12.94 bitrate=N/A    frame=  649 fps=2.6 q=24.8 size=N/A time=00:00:12.98 bitrate=N/A    frame=  651 fps=2.6 q=24.8 size=N/A time=00:00:13.02 bitrate=N/A    frame=  653 fps=2.6 q=24.8 size=N/A time=00:00:13.06 bitrate=N/A    frame=  655 fps=2.6 q=24.8 size=N/A time=00:00:13.10 bitrate=N/A    frame=  657 fps=2.6 q=24.8 size=N/A time=00:00:13.14 bitrate=N/A    frame=  659 fps=2.6 q=24.8 size=N/A time=00:00:13.18 bitrate=N/A    frame=  661 fps=2.6 q=24.8 size=N/A time=00:00:13.22 bitrate=N/A    frame=  663 fps=2.6 q=24.8 size=N/A time=00:00:13.26 bitrate=N/A    frame=  665 fps=2.6 q=24.8 size=N/A time=00:00:13.30 bitrate=N/A    frame=  667 fps=2.6 q=24.8 size=N/A time=00:00:13.34 bitrate=N/A    frame=  669 fps=2.6 q=24.8 size=N/A time=00:00:13.38 bitrate=N/A    frame=  671 fps=2.6 q=24.8 size=N/A time=00:00:13.42 bitrate=N/A    frame=  673 fps=2.6 q=24.8 size=N/A time=00:00:13.46 bitrate=N/A    frame=  675 fps=2.6 q=24.8 size=N/A time=00:00:13.50 bitrate=N/A    frame=  677 fps=2.6 q=24.8 size=N/A time=00:00:13.54 bitrate=N/A    frame=  679 fps=2.6 q=24.8 size=N/A time=00:00:13.58 bitrate=N/A    frame=  681 fps=2.6 q=24.8 size=N/A time=00:00:13.62 bitrate=N/A    frame=  683 fps=2.6 q=24.8 size=N/A time=00:00:13.66 bitrate=N/A    frame=  685 fps=2.6 q=24.8 size=N/A time=00:00:13.70 bitrate=N/A    frame=  687 fps=2.6 q=24.8 size=N/A time=00:00:13.74 bitrate=N/A    frame=  689 fps=2.6 q=24.8 size=N/A time=00:00:13.78 bitrate=N/A    frame=  691 fps=2.6 q=24.8 size=N/A time=00:00:13.82 bitrate=N/A    frame=  693 fps=2.6 q=24.8 size=N/A time=00:00:13.86 bitrate=N/A    frame=  695 fps=2.6 q=24.8 size=N/A time=00:00:13.90 bitrate=N/A    frame=  697 fps=2.6 q=24.8 size=N/A time=00:00:13.94 bitrate=N/A    frame=  699 fps=2.6 q=24.8 size=N/A time=00:00:13.98 bitrate=N/A    frame=  701 fps=2.6 q=24.8 size=N/A time=00:00:14.02 bitrate=N/A    frame=  703 fps=2.6 q=24.8 size=N/A time=00:00:14.06 bitrate=N/A    frame=  705 fps=2.6 q=24.8 size=N/A time=00:00:14.10 bitrate=N/A    frame=  707 fps=2.6 q=24.8 size=N/A time=00:00:14.14 bitrate=N/A    frame=  709 fps=2.6 q=24.8 size=N/A time=00:00:14.18 bitrate=N/A    frame=  711 fps=2.6 q=24.8 size=N/A time=00:00:14.22 bitrate=N/A    frame=  713 fps=2.6 q=24.8 size=N/A time=00:00:14.26 bitrate=N/A    frame=  715 fps=2.6 q=24.8 size=N/A time=00:00:14.30 bitrate=N/A    frame=  717 fps=2.6 q=24.8 size=N/A time=00:00:14.34 bitrate=N/A    frame=  719 fps=2.6 q=24.8 size=N/A time=00:00:14.38 bitrate=N/A    frame=  721 fps=2.6 q=24.8 size=N/A time=00:00:14.42 bitrate=N/A    frame=  723 fps=2.6 q=24.8 size=N/A time=00:00:14.46 bitrate=N/A    frame=  725 fps=2.6 q=24.8 size=N/A time=00:00:14.50 bitrate=N/A    frame=  727 fps=2.6 q=24.8 size=N/A time=00:00:14.54 bitrate=N/A    frame=  729 fps=2.6 q=24.8 size=N/A time=00:00:14.58 bitrate=N/A    frame=  731 fps=2.6 q=24.8 size=N/A time=00:00:14.62 bitrate=N/A    frame=  733 fps=2.6 q=24.8 size=N/A time=00:00:14.66 bitrate=N/A    frame=  735 fps=2.6 q=24.8 size=N/A time=00:00:14.70 bitrate=N/A    frame=  737 fps=2.6 q=24.8 size=N/A time=00:00:14.74 bitrate=N/A    frame=  739 fps=2.6 q=24.8 size=N/A time=00:00:14.78 bitrate=N/A    frame=  741 fps=2.6 q=24.8 size=N/A time=00:00:14.82 bitrate=N/A    frame=  743 fps=2.6 q=24.8 size=N/A time=00:00:14.86 bitrate=N/A    frame=  745 fps=2.6 q=24.8 size=N/A time=00:00:14.90 bitrate=N/A    frame=  747 fps=2.7 q=24.8 size=N/A time=00:00:14.94 bitrate=N/A    frame=  749 fps=2.6 q=24.8 size=N/A time=00:00:14.98 bitrate=N/A    frame=  751 fps=2.7 q=24.8 size=N/A time=00:00:15.02 bitrate=N/A    frame=  753 fps=2.7 q=24.8 size=N/A time=00:00:15.06 bitrate=N/A    frame=  755 fps=2.7 q=24.8 size=N/A time=00:00:15.10 bitrate=N/A    frame=  757 fps=2.7 q=24.8 size=N/A time=00:00:15.14 bitrate=N/A    frame=  759 fps=2.7 q=24.8 size=N/A time=00:00:15.18 bitrate=N/A    frame=  761 fps=2.7 q=24.8 size=N/A time=00:00:15.22 bitrate=N/A    frame=  763 fps=2.7 q=24.8 size=N/A time=00:00:15.26 bitrate=N/A    frame=  765 fps=2.7 q=24.8 size=N/A time=00:00:15.30 bitrate=N/A    frame=  767 fps=2.7 q=24.8 size=N/A time=00:00:15.34 bitrate=N/A    frame=  769 fps=2.7 q=24.8 size=N/A time=00:00:15.38 bitrate=N/A    frame=  771 fps=2.7 q=24.8 size=N/A time=00:00:15.42 bitrate=N/A    frame=  773 fps=2.7 q=24.8 size=N/A time=00:00:15.46 bitrate=N/A    frame=  775 fps=2.7 q=24.8 size=N/A time=00:00:15.50 bitrate=N/A    frame=  777 fps=2.7 q=24.8 size=N/A time=00:00:15.54 bitrate=N/A    frame=  779 fps=2.7 q=24.8 size=N/A time=00:00:15.58 bitrate=N/A    frame=  781 fps=2.7 q=24.8 size=N/A time=00:00:15.62 bitrate=N/A    frame=  783 fps=2.7 q=24.8 size=N/A time=00:00:15.66 bitrate=N/A    frame=  785 fps=2.7 q=24.8 size=N/A time=00:00:15.70 bitrate=N/A    frame=  787 fps=2.7 q=24.8 size=N/A time=00:00:15.74 bitrate=N/A    frame=  789 fps=2.7 q=24.8 size=N/A time=00:00:15.78 bitrate=N/A    frame=  791 fps=2.7 q=24.8 size=N/A time=00:00:15.82 bitrate=N/A    frame=  793 fps=2.7 q=24.8 size=N/A time=00:00:15.86 bitrate=N/A    frame=  795 fps=2.7 q=24.8 size=N/A time=00:00:15.90 bitrate=N/A    frame=  797 fps=2.7 q=24.8 size=N/A time=00:00:15.94 bitrate=N/A    frame=  799 fps=2.7 q=24.8 size=N/A time=00:00:15.98 bitrate=N/A    frame=  801 fps=2.7 q=24.8 size=N/A time=00:00:16.02 bitrate=N/A    frame=  803 fps=2.7 q=24.8 size=N/A time=00:00:16.06 bitrate=N/A    frame=  805 fps=2.7 q=24.8 size=N/A time=00:00:16.10 bitrate=N/A    frame=  807 fps=2.7 q=24.8 size=N/A time=00:00:16.14 bitrate=N/A    frame=  809 fps=2.7 q=24.8 size=N/A time=00:00:16.18 bitrate=N/A    frame=  811 fps=2.7 q=24.8 size=N/A time=00:00:16.22 bitrate=N/A    frame=  813 fps=2.7 q=24.8 size=N/A time=00:00:16.26 bitrate=N/A    frame=  815 fps=2.7 q=24.8 size=N/A time=00:00:16.30 bitrate=N/A    frame=  817 fps=2.7 q=24.8 size=N/A time=00:00:16.34 bitrate=N/A    frame=  819 fps=2.7 q=24.8 size=N/A time=00:00:16.38 bitrate=N/A    frame=  821 fps=2.7 q=24.8 size=N/A time=00:00:16.42 bitrate=N/A    frame=  823 fps=2.7 q=24.8 size=N/A time=00:00:16.46 bitrate=N/A    frame=  825 fps=2.7 q=24.8 size=N/A time=00:00:16.50 bitrate=N/A    frame=  827 fps=2.7 q=24.8 size=N/A time=00:00:16.54 bitrate=N/A    frame=  829 fps=2.7 q=24.8 size=N/A time=00:00:16.58 bitrate=N/A    frame=  831 fps=2.7 q=24.8 size=N/A time=00:00:16.62 bitrate=N/A    frame=  833 fps=2.7 q=24.8 size=N/A time=00:00:16.66 bitrate=N/A    frame=  835 fps=2.7 q=24.8 size=N/A time=00:00:16.70 bitrate=N/A    frame=  837 fps=2.7 q=24.8 size=N/A time=00:00:16.74 bitrate=N/A    frame=  839 fps=2.7 q=24.8 size=N/A time=00:00:16.78 bitrate=N/A    frame=  841 fps=2.7 q=24.8 size=N/A time=00:00:16.82 bitrate=N/A    frame=  843 fps=2.7 q=24.8 size=N/A time=00:00:16.86 bitrate=N/A    frame=  845 fps=2.7 q=24.8 size=N/A time=00:00:16.90 bitrate=N/A    frame=  847 fps=2.7 q=24.8 size=N/A time=00:00:16.94 bitrate=N/A    frame=  849 fps=2.7 q=24.8 size=N/A time=00:00:16.98 bitrate=N/A    frame=  851 fps=2.7 q=24.8 size=N/A time=00:00:17.02 bitrate=N/A    frame=  853 fps=2.7 q=24.8 size=N/A time=00:00:17.06 bitrate=N/A    frame=  855 fps=2.7 q=24.8 size=N/A time=00:00:17.10 bitrate=N/A    frame=  857 fps=2.7 q=24.8 size=N/A time=00:00:17.14 bitrate=N/A    frame=  859 fps=2.7 q=24.8 size=N/A time=00:00:17.18 bitrate=N/A    frame=  861 fps=2.7 q=24.8 size=N/A time=00:00:17.22 bitrate=N/A    frame=  863 fps=2.7 q=24.8 size=N/A time=00:00:17.26 bitrate=N/A    frame=  865 fps=2.7 q=24.8 size=N/A time=00:00:17.30 bitrate=N/A    frame=  867 fps=2.7 q=24.8 size=N/A time=00:00:17.34 bitrate=N/A    frame=  869 fps=2.7 q=24.8 size=N/A time=00:00:17.38 bitrate=N/A    frame=  871 fps=2.7 q=24.8 size=N/A time=00:00:17.42 bitrate=N/A    frame=  873 fps=2.7 q=24.8 size=N/A time=00:00:17.46 bitrate=N/A    frame=  875 fps=2.7 q=24.8 size=N/A time=00:00:17.50 bitrate=N/A    frame=  877 fps=2.7 q=24.8 size=N/A time=00:00:17.54 bitrate=N/A    frame=  879 fps=2.7 q=24.8 size=N/A time=00:00:17.58 bitrate=N/A    frame=  881 fps=2.7 q=24.8 size=N/A time=00:00:17.62 bitrate=N/A    frame=  883 fps=2.7 q=24.8 size=N/A time=00:00:17.66 bitrate=N/A    frame=  885 fps=2.7 q=24.8 size=N/A time=00:00:17.70 bitrate=N/A    frame=  887 fps=2.7 q=24.8 size=N/A time=00:00:17.74 bitrate=N/A    frame=  889 fps=2.7 q=24.8 size=N/A time=00:00:17.78 bitrate=N/A    frame=  891 fps=2.7 q=24.8 size=N/A time=00:00:17.82 bitrate=N/A    frame=  893 fps=2.7 q=24.8 size=N/A time=00:00:17.86 bitrate=N/A    frame=  895 fps=2.7 q=24.8 size=N/A time=00:00:17.90 bitrate=N/A    frame=  897 fps=2.7 q=24.8 size=N/A time=00:00:17.94 bitrate=N/A    frame=  899 fps=2.7 q=24.8 size=N/A time=00:00:17.98 bitrate=N/A    frame=  901 fps=2.7 q=24.8 size=N/A time=00:00:18.02 bitrate=N/A    frame=  903 fps=2.7 q=24.8 size=N/A time=00:00:18.06 bitrate=N/A    frame=  905 fps=2.7 q=24.8 size=N/A time=00:00:18.10 bitrate=N/A    frame=  907 fps=2.7 q=24.8 size=N/A time=00:00:18.14 bitrate=N/A    frame=  909 fps=2.7 q=24.8 size=N/A time=00:00:18.18 bitrate=N/A    frame=  911 fps=2.7 q=24.8 size=N/A time=00:00:18.22 bitrate=N/A    frame=  913 fps=2.7 q=24.8 size=N/A time=00:00:18.26 bitrate=N/A    frame=  915 fps=2.7 q=24.8 size=N/A time=00:00:18.30 bitrate=N/A    frame=  917 fps=2.7 q=24.8 size=N/A time=00:00:18.34 bitrate=N/A    frame=  919 fps=2.7 q=24.8 size=N/A time=00:00:18.38 bitrate=N/A    frame=  921 fps=2.7 q=24.8 size=N/A time=00:00:18.42 bitrate=N/A    frame=  923 fps=2.7 q=24.8 size=N/A time=00:00:18.46 bitrate=N/A    frame=  925 fps=2.7 q=24.8 size=N/A time=00:00:18.50 bitrate=N/A    frame=  927 fps=2.7 q=24.8 size=N/A time=00:00:18.54 bitrate=N/A    frame=  929 fps=2.7 q=24.8 size=N/A time=00:00:18.58 bitrate=N/A    frame=  931 fps=2.7 q=24.8 size=N/A time=00:00:18.62 bitrate=N/A    frame=  933 fps=2.7 q=24.8 size=N/A time=00:00:18.66 bitrate=N/A    frame=  935 fps=2.7 q=24.8 size=N/A time=00:00:18.70 bitrate=N/A    frame=  937 fps=2.7 q=24.8 size=N/A time=00:00:18.74 bitrate=N/A    frame=  939 fps=2.7 q=24.8 size=N/A time=00:00:18.78 bitrate=N/A    frame=  941 fps=2.7 q=24.8 size=N/A time=00:00:18.82 bitrate=N/A    frame=  943 fps=2.7 q=24.8 size=N/A time=00:00:18.86 bitrate=N/A    frame=  945 fps=2.7 q=24.8 size=N/A time=00:00:18.90 bitrate=N/A    frame=  947 fps=2.7 q=24.8 size=N/A time=00:00:18.94 bitrate=N/A    frame=  949 fps=2.7 q=24.8 size=N/A time=00:00:18.98 bitrate=N/A    frame=  951 fps=2.7 q=24.8 size=N/A time=00:00:19.02 bitrate=N/A    frame=  953 fps=2.7 q=24.8 size=N/A time=00:00:19.06 bitrate=N/A    frame=  955 fps=2.7 q=24.8 size=N/A time=00:00:19.10 bitrate=N/A    frame=  957 fps=2.7 q=24.8 size=N/A time=00:00:19.14 bitrate=N/A    frame=  959 fps=2.7 q=24.8 size=N/A time=00:00:19.18 bitrate=N/A    frame=  961 fps=2.7 q=24.8 size=N/A time=00:00:19.22 bitrate=N/A    frame=  963 fps=2.7 q=24.8 size=N/A time=00:00:19.26 bitrate=N/A    frame=  965 fps=2.7 q=24.8 size=N/A time=00:00:19.30 bitrate=N/A    frame=  967 fps=2.7 q=24.8 size=N/A time=00:00:19.34 bitrate=N/A    frame=  969 fps=2.7 q=24.8 size=N/A time=00:00:19.38 bitrate=N/A    frame=  971 fps=2.7 q=24.8 size=N/A time=00:00:19.42 bitrate=N/A    frame=  973 fps=2.7 q=24.8 size=N/A time=00:00:19.46 bitrate=N/A    frame=  975 fps=2.7 q=24.8 size=N/A time=00:00:19.50 bitrate=N/A    frame=  977 fps=2.7 q=24.8 size=N/A time=00:00:19.54 bitrate=N/A    frame=  979 fps=2.7 q=24.8 size=N/A time=00:00:19.58 bitrate=N/A    frame=  981 fps=2.7 q=24.8 size=N/A time=00:00:19.62 bitrate=N/A    frame=  983 fps=2.7 q=24.8 size=N/A time=00:00:19.66 bitrate=N/A    frame=  985 fps=2.7 q=24.8 size=N/A time=00:00:19.70 bitrate=N/A    frame=  987 fps=2.7 q=24.8 size=N/A time=00:00:19.74 bitrate=N/A    frame=  989 fps=2.7 q=24.8 size=N/A time=00:00:19.78 bitrate=N/A    frame=  991 fps=2.7 q=24.8 size=N/A time=00:00:19.82 bitrate=N/A    frame=  993 fps=2.7 q=24.8 size=N/A time=00:00:19.86 bitrate=N/A    frame=  995 fps=2.7 q=24.8 size=N/A time=00:00:19.90 bitrate=N/A    frame=  997 fps=2.7 q=24.8 size=N/A time=00:00:19.94 bitrate=N/A    frame=  999 fps=2.7 q=24.8 size=N/A time=00:00:19.98 bitrate=N/A    frame= 1001 fps=2.7 q=24.8 size=N/A time=00:00:20.02 bitrate=N/A    frame= 1003 fps=2.7 q=24.8 size=N/A time=00:00:20.06 bitrate=N/A    frame= 1005 fps=2.7 q=24.8 size=N/A time=00:00:20.10 bitrate=N/A    frame= 1007 fps=2.7 q=24.8 size=N/A time=00:00:20.14 bitrate=N/A    frame= 1009 fps=2.7 q=24.8 size=N/A time=00:00:20.18 bitrate=N/A    frame= 1011 fps=2.7 q=24.8 size=N/A time=00:00:20.22 bitrate=N/A    frame= 1013 fps=2.7 q=24.8 size=N/A time=00:00:20.26 bitrate=N/A    frame= 1015 fps=2.7 q=24.8 size=N/A time=00:00:20.30 bitrate=N/A    frame= 1017 fps=2.7 q=24.8 size=N/A time=00:00:20.34 bitrate=N/A    frame= 1019 fps=2.7 q=24.8 size=N/A time=00:00:20.38 bitrate=N/A    frame= 1021 fps=2.7 q=24.8 size=N/A time=00:00:20.42 bitrate=N/A    frame= 1023 fps=2.7 q=24.8 size=N/A time=00:00:20.46 bitrate=N/A    frame= 1025 fps=2.7 q=24.8 size=N/A time=00:00:20.50 bitrate=N/A    frame= 1027 fps=2.7 q=24.8 size=N/A time=00:00:20.54 bitrate=N/A    frame= 1029 fps=2.7 q=24.8 size=N/A time=00:00:20.58 bitrate=N/A    frame= 1031 fps=2.7 q=24.8 size=N/A time=00:00:20.62 bitrate=N/A    frame= 1033 fps=2.7 q=24.8 size=N/A time=00:00:20.66 bitrate=N/A    frame= 1035 fps=2.7 q=24.8 size=N/A time=00:00:20.70 bitrate=N/A    frame= 1037 fps=2.7 q=24.8 size=N/A time=00:00:20.74 bitrate=N/A    frame= 1039 fps=2.7 q=24.8 size=N/A time=00:00:20.78 bitrate=N/A    frame= 1041 fps=2.7 q=24.8 size=N/A time=00:00:20.82 bitrate=N/A    frame= 1043 fps=2.7 q=24.8 size=N/A time=00:00:20.86 bitrate=N/A    frame= 1045 fps=2.7 q=24.8 size=N/A time=00:00:20.90 bitrate=N/A    frame= 1047 fps=2.7 q=24.8 size=N/A time=00:00:20.94 bitrate=N/A    frame= 1049 fps=2.7 q=24.8 size=N/A time=00:00:20.98 bitrate=N/A    frame= 1051 fps=2.7 q=24.8 size=N/A time=00:00:21.02 bitrate=N/A    frame= 1053 fps=2.7 q=24.8 size=N/A time=00:00:21.06 bitrate=N/A    frame= 1055 fps=2.7 q=24.8 size=N/A time=00:00:21.10 bitrate=N/A    frame= 1057 fps=2.7 q=24.8 size=N/A time=00:00:21.14 bitrate=N/A    frame= 1059 fps=2.7 q=24.8 size=N/A time=00:00:21.18 bitrate=N/A    frame= 1061 fps=2.7 q=24.8 size=N/A time=00:00:21.22 bitrate=N/A    frame= 1063 fps=2.7 q=24.8 size=N/A time=00:00:21.26 bitrate=N/A    frame= 1065 fps=2.7 q=24.8 size=N/A time=00:00:21.30 bitrate=N/A    frame= 1067 fps=2.7 q=24.8 size=N/A time=00:00:21.34 bitrate=N/A    frame= 1069 fps=2.7 q=24.8 size=N/A time=00:00:21.38 bitrate=N/A    frame= 1071 fps=2.7 q=24.8 size=N/A time=00:00:21.42 bitrate=N/A    frame= 1073 fps=2.7 q=24.8 size=N/A time=00:00:21.46 bitrate=N/A    frame= 1075 fps=2.7 q=24.8 size=N/A time=00:00:21.50 bitrate=N/A    frame= 1077 fps=2.7 q=24.8 size=N/A time=00:00:21.54 bitrate=N/A    frame= 1079 fps=2.7 q=24.8 size=N/A time=00:00:21.58 bitrate=N/A    frame= 1081 fps=2.7 q=24.8 size=N/A time=00:00:21.62 bitrate=N/A    frame= 1083 fps=2.7 q=24.8 size=N/A time=00:00:21.66 bitrate=N/A    frame= 1085 fps=2.7 q=24.8 size=N/A time=00:00:21.70 bitrate=N/A    frame= 1087 fps=2.7 q=24.8 size=N/A time=00:00:21.74 bitrate=N/A    frame= 1089 fps=2.7 q=24.8 size=N/A time=00:00:21.78 bitrate=N/A    frame= 1091 fps=2.7 q=24.8 size=N/A time=00:00:21.82 bitrate=N/A    frame= 1093 fps=2.7 q=24.8 size=N/A time=00:00:21.86 bitrate=N/A    frame= 1095 fps=2.7 q=24.8 size=N/A time=00:00:21.90 bitrate=N/A    frame= 1097 fps=2.7 q=24.8 size=N/A time=00:00:21.94 bitrate=N/A    frame= 1099 fps=2.7 q=24.8 size=N/A time=00:00:21.98 bitrate=N/A    frame= 1101 fps=2.7 q=24.8 size=N/A time=00:00:22.02 bitrate=N/A    frame= 1103 fps=2.7 q=24.8 size=N/A time=00:00:22.06 bitrate=N/A    frame= 1105 fps=2.7 q=24.8 size=N/A time=00:00:22.10 bitrate=N/A    frame= 1107 fps=2.7 q=24.8 size=N/A time=00:00:22.14 bitrate=N/A    frame= 1109 fps=2.7 q=24.8 size=N/A time=00:00:22.18 bitrate=N/A    frame= 1111 fps=2.7 q=24.8 size=N/A time=00:00:22.22 bitrate=N/A    frame= 1113 fps=2.7 q=24.8 size=N/A time=00:00:22.26 bitrate=N/A    frame= 1115 fps=2.7 q=24.8 size=N/A time=00:00:22.30 bitrate=N/A    frame= 1117 fps=2.7 q=24.8 size=N/A time=00:00:22.34 bitrate=N/A    frame= 1119 fps=2.7 q=24.8 size=N/A time=00:00:22.38 bitrate=N/A    frame= 1121 fps=2.7 q=24.8 size=N/A time=00:00:22.42 bitrate=N/A    frame= 1123 fps=2.7 q=24.8 size=N/A time=00:00:22.46 bitrate=N/A    frame= 1125 fps=2.7 q=24.8 size=N/A time=00:00:22.50 bitrate=N/A    frame= 1127 fps=2.7 q=24.8 size=N/A time=00:00:22.54 bitrate=N/A    frame= 1129 fps=2.7 q=24.8 size=N/A time=00:00:22.58 bitrate=N/A    frame= 1131 fps=2.7 q=24.8 size=N/A time=00:00:22.62 bitrate=N/A    frame= 1133 fps=2.7 q=24.8 size=N/A time=00:00:22.66 bitrate=N/A    frame= 1135 fps=2.7 q=24.8 size=N/A time=00:00:22.70 bitrate=N/A    frame= 1137 fps=2.7 q=24.8 size=N/A time=00:00:22.74 bitrate=N/A    frame= 1139 fps=2.7 q=24.8 size=N/A time=00:00:22.78 bitrate=N/A    frame= 1141 fps=2.7 q=24.8 size=N/A time=00:00:22.82 bitrate=N/A    frame= 1143 fps=2.7 q=24.8 size=N/A time=00:00:22.86 bitrate=N/A    frame= 1145 fps=2.7 q=24.8 size=N/A time=00:00:22.90 bitrate=N/A    frame= 1147 fps=2.7 q=24.8 size=N/A time=00:00:22.94 bitrate=N/A    frame= 1149 fps=2.7 q=24.8 size=N/A time=00:00:22.98 bitrate=N/A    frame= 1151 fps=2.7 q=24.8 size=N/A time=00:00:23.02 bitrate=N/A    frame= 1153 fps=2.7 q=24.8 size=N/A time=00:00:23.06 bitrate=N/A    frame= 1155 fps=2.7 q=24.8 size=N/A time=00:00:23.10 bitrate=N/A    frame= 1157 fps=2.7 q=24.8 size=N/A time=00:00:23.14 bitrate=N/A    frame= 1159 fps=2.7 q=24.8 size=N/A time=00:00:23.18 bitrate=N/A    frame= 1161 fps=2.7 q=24.8 size=N/A time=00:00:23.22 bitrate=N/A    frame= 1163 fps=2.7 q=24.8 size=N/A time=00:00:23.26 bitrate=N/A    frame= 1165 fps=2.7 q=24.8 size=N/A time=00:00:23.30 bitrate=N/A    frame= 1167 fps=2.7 q=24.8 size=N/A time=00:00:23.34 bitrate=N/A    frame= 1169 fps=2.7 q=24.8 size=N/A time=00:00:23.38 bitrate=N/A    frame= 1171 fps=2.7 q=24.8 size=N/A time=00:00:23.42 bitrate=N/A    frame= 1173 fps=2.7 q=24.8 size=N/A time=00:00:23.46 bitrate=N/A    frame= 1175 fps=2.7 q=24.8 size=N/A time=00:00:23.50 bitrate=N/A    frame= 1177 fps=2.7 q=24.8 size=N/A time=00:00:23.54 bitrate=N/A    frame= 1179 fps=2.7 q=24.8 size=N/A time=00:00:23.58 bitrate=N/A    frame= 1181 fps=2.7 q=24.8 size=N/A time=00:00:23.62 bitrate=N/A    frame= 1183 fps=2.7 q=24.8 size=N/A time=00:00:23.66 bitrate=N/A    frame= 1185 fps=2.7 q=24.8 size=N/A time=00:00:23.70 bitrate=N/A    frame= 1187 fps=2.7 q=24.8 size=N/A time=00:00:23.74 bitrate=N/A    frame= 1189 fps=2.7 q=24.8 size=N/A time=00:00:23.78 bitrate=N/A    frame= 1191 fps=2.7 q=24.8 size=N/A time=00:00:23.82 bitrate=N/A    frame= 1193 fps=2.7 q=24.8 size=N/A time=00:00:23.86 bitrate=N/A    frame= 1195 fps=2.7 q=24.8 size=N/A time=00:00:23.90 bitrate=N/A    frame= 1197 fps=2.7 q=24.8 size=N/A time=00:00:23.94 bitrate=N/A    frame= 1199 fps=2.7 q=24.8 size=N/A time=00:00:23.98 bitrate=N/A    frame= 1201 fps=2.7 q=24.8 size=N/A time=00:00:24.02 bitrate=N/A    frame= 1203 fps=2.7 q=24.8 size=N/A time=00:00:24.06 bitrate=N/A    frame= 1205 fps=2.7 q=24.8 size=N/A time=00:00:24.10 bitrate=N/A    frame= 1207 fps=2.7 q=24.8 size=N/A time=00:00:24.14 bitrate=N/A    frame= 1209 fps=2.7 q=24.8 size=N/A time=00:00:24.18 bitrate=N/A    frame= 1211 fps=2.7 q=24.8 size=N/A time=00:00:24.22 bitrate=N/A    frame= 1213 fps=2.7 q=24.8 size=N/A time=00:00:24.26 bitrate=N/A    frame= 1215 fps=2.7 q=24.8 size=N/A time=00:00:24.30 bitrate=N/A    frame= 1217 fps=2.7 q=24.8 size=N/A time=00:00:24.34 bitrate=N/A    frame= 1219 fps=2.7 q=24.8 size=N/A time=00:00:24.38 bitrate=N/A    frame= 1221 fps=2.7 q=24.8 size=N/A time=00:00:24.42 bitrate=N/A    frame= 1223 fps=2.7 q=24.8 size=N/A time=00:00:24.46 bitrate=N/A    frame= 1225 fps=2.7 q=24.8 size=N/A time=00:00:24.50 bitrate=N/A    frame= 1227 fps=2.7 q=24.8 size=N/A time=00:00:24.54 bitrate=N/A    frame= 1229 fps=2.7 q=24.8 size=N/A time=00:00:24.58 bitrate=N/A    frame= 1231 fps=2.7 q=24.8 size=N/A time=00:00:24.62 bitrate=N/A    frame= 1233 fps=2.7 q=24.8 size=N/A time=00:00:24.66 bitrate=N/A    frame= 1235 fps=2.7 q=24.8 size=N/A time=00:00:24.70 bitrate=N/A    frame= 1237 fps=2.7 q=24.8 size=N/A time=00:00:24.74 bitrate=N/A    frame= 1239 fps=2.7 q=24.8 size=N/A time=00:00:24.78 bitrate=N/A    frame= 1241 fps=2.7 q=24.8 size=N/A time=00:00:24.82 bitrate=N/A    frame= 1243 fps=2.7 q=24.8 size=N/A time=00:00:24.86 bitrate=N/A    frame= 1245 fps=2.7 q=24.8 size=N/A time=00:00:24.90 bitrate=N/A    frame= 1247 fps=2.7 q=24.8 size=N/A time=00:00:24.94 bitrate=N/A    frame= 1249 fps=2.7 q=24.8 size=N/A time=00:00:24.98 bitrate=N/A    frame= 1251 fps=2.7 q=24.8 size=N/A time=00:00:25.02 bitrate=N/A    frame= 1253 fps=2.7 q=24.8 size=N/A time=00:00:25.06 bitrate=N/A    frame= 1255 fps=2.7 q=24.8 size=N/A time=00:00:25.10 bitrate=N/A    frame= 1257 fps=2.7 q=24.8 size=N/A time=00:00:25.14 bitrate=N/A    frame= 1259 fps=2.7 q=24.8 size=N/A time=00:00:25.18 bitrate=N/A    frame= 1261 fps=2.7 q=24.8 size=N/A time=00:00:25.22 bitrate=N/A    frame= 1263 fps=2.7 q=24.8 size=N/A time=00:00:25.26 bitrate=N/A    frame= 1265 fps=2.7 q=24.8 size=N/A time=00:00:25.30 bitrate=N/A    frame= 1267 fps=2.7 q=24.8 size=N/A time=00:00:25.34 bitrate=N/A    frame= 1269 fps=2.7 q=24.8 size=N/A time=00:00:25.38 bitrate=N/A    frame= 1271 fps=2.7 q=24.8 size=N/A time=00:00:25.42 bitrate=N/A    frame= 1273 fps=2.7 q=24.8 size=N/A time=00:00:25.46 bitrate=N/A    frame= 1275 fps=2.7 q=24.8 size=N/A time=00:00:25.50 bitrate=N/A    frame= 1277 fps=2.7 q=24.8 size=N/A time=00:00:25.54 bitrate=N/A    frame= 1279 fps=2.7 q=24.8 size=N/A time=00:00:25.58 bitrate=N/A    frame= 1281 fps=2.7 q=24.8 size=N/A time=00:00:25.62 bitrate=N/A    frame= 1283 fps=2.7 q=24.8 size=N/A time=00:00:25.66 bitrate=N/A    frame= 1285 fps=2.7 q=24.8 size=N/A time=00:00:25.70 bitrate=N/A    frame= 1287 fps=2.7 q=24.8 size=N/A time=00:00:25.74 bitrate=N/A    frame= 1289 fps=2.7 q=24.8 size=N/A time=00:00:25.78 bitrate=N/A    frame= 1291 fps=2.7 q=24.8 size=N/A time=00:00:25.82 bitrate=N/A    frame= 1293 fps=2.7 q=24.8 size=N/A time=00:00:25.86 bitrate=N/A    frame= 1295 fps=2.7 q=24.8 size=N/A time=00:00:25.90 bitrate=N/A    frame= 1297 fps=2.7 q=24.8 size=N/A time=00:00:25.94 bitrate=N/A    frame= 1299 fps=2.7 q=24.8 size=N/A time=00:00:25.98 bitrate=N/A    frame= 1301 fps=2.7 q=24.8 size=N/A time=00:00:26.02 bitrate=N/A    frame= 1303 fps=2.7 q=24.8 size=N/A time=00:00:26.06 bitrate=N/A    frame= 1305 fps=2.7 q=24.8 size=N/A time=00:00:26.10 bitrate=N/A    frame= 1307 fps=2.7 q=24.8 size=N/A time=00:00:26.14 bitrate=N/A    frame= 1309 fps=2.7 q=24.8 size=N/A time=00:00:26.18 bitrate=N/A    frame= 1310 fps=2.7 q=24.8 size=N/A time=00:00:26.20 bitrate=N/A    frame= 1310 fps=2.7 q=24.8 Lsize=N/A time=00:00:26.20 bitrate=N/A    
video:1261933kB audio:0kB subtitle:0kB other streams:0kB global headers:0kB muxing overhead: unknown
+ turkic load DJI_0083_30m_regi_disznoturas_homokmegy_20180603_napos_kalaszos_T4 /home/horvathandras/vatic/vatic/videos/DJI_0083_30m_regi_disznoturas_homokmegy_20180603_napos_kalaszos_T4 $'Pozit\303\255vROI' $'Negat\303\255vROI' $'T\303\272r\303\241s' '~Friss' '~1-2Hetes' '~Régebbi' '~Egyéb1' '~Egyéb2' '~Egyéb3' $'R\303\241g\303\241s' '~Friss' '~1-2Hetes' '~Régebbi' '~Egyéb1' '~Egyéb2' '~Egyéb3' $'T\303\266r\303\251s' '~Friss' '~1-2Hetes' '~Régebbi' '~Egyéb1' '~Egyéb2' '~Egyéb3' $'Tapos\303\241s' '~Friss' '~1-2Hetes' '~Régebbi' '~Egyéb1' '~Egyéb2' '~Egyéb3' $'Eg\303\251szs\303\251gesN\303\266v\303\251ny' $'Egy\303\251b1' $'Egy\303\251b2' $'Egy\303\251b3' $'Egy\303\251b4' $'Egy\303\251b5' Bizonytalan $'M\305\261vel\305\221\303\272t' $'Gktapos\303\241s' $'Vet\305\221hiba' $'Sz\303\251ld\303\266nt\303\251s' $'J\303\251gk\303\241r' $'Belv\303\255z' $'Asz\303\241ly' $'Er\303\263zi\303\263' $'Egyszik\305\261Gyom' $'K\303\251tszik\305\261Gyom' $'Egy\303\251bN\303\266vv\303\251delmiPR' --offline --title '$filenameNoDot Video' --length 1000 --description 'vatic annotation'
+ turkic publish --offline
+ mkdir /home/horvathandras/vatic/vatic/public/videothumbnails/DJI_0083_30m_regi_disznoturas_homokmegy_20180603_napos_kalaszos_T4
mkdir: cannot create directory '/home/horvathandras/vatic/vatic/public/videothumbnails/DJI_0083_30m_regi_disznoturas_homokmegy_20180603_napos_kalaszos_T4': File exists
+ cp /home/horvathandras/vatic/vatic/videos/DJI_0083_30m_regi_disznoturas_homokmegy_20180603_napos_kalaszos_T4/0/0/31.jpg /home/horvathandras/vatic/vatic/public/videothumbnails/DJI_0083_30m_regi_disznoturas_homokmegy_20180603_napos_kalaszos_T4/thumb.jpg
